<?xml version="1.0" encoding="utf-8" standalone="no"?>
<!DOCTYPE svg PUBLIC "-//W3C//DTD SVG 1.1//EN"
  "http://www.w3.org/Graphics/SVG/1.1/DTD/svg11.dtd">
<svg xmlns:xlink="http://www.w3.org/1999/xlink" width="856.8pt" height="640.8pt" viewBox="0 0 856.8 640.8" xmlns="http://www.w3.org/2000/svg" version="1.1">
 <metadata>
  <rdf:RDF xmlns:dc="http://purl.org/dc/elements/1.1/" xmlns:cc="http://creativecommons.org/ns#" xmlns:rdf="http://www.w3.org/1999/02/22-rdf-syntax-ns#">
   <cc:Work>
    <dc:type rdf:resource="http://purl.org/dc/dcmitype/StillImage"/>
    <dc:date>1980-01-01T00:00:00+00:00</dc:date>
    <dc:format>image/svg+xml</dc:format>
    <dc:creator>
     <cc:Agent>
      <dc:title>Matplotlib v3.8.0, https://matplotlib.org/</dc:title>
     </cc:Agent>
    </dc:creator>
   </cc:Work>
  </rdf:RDF>
 </metadata>
 <defs>
  <style type="text/css">*{stroke-linejoin: round; stroke-linecap: butt}</style>
 </defs>
 <g id="figure_1">
  <g id="patch_1">
   <path d="M 0 640.8 
L 856.8 640.8 
L 856.8 0 
L 0 0 
z
" style="fill: #ffffff"/>
  </g>
  <g id="axes_1">
   <g id="patch_2">
    <path d="M 29.144006 306.627511 
L 849.6 306.627511 
L 849.6 22.166376 
L 29.144006 22.166376 
z
" style="fill: #ffffff"/>
   </g>
   <g id="matplotlib.axis_1">
    <g id="xtick_1">
     <g id="line2d_1">
      <path d="M 66.43746 306.627511 
L 66.43746 22.166376 
" clip-path="url(#pef19aaa56a)" style="fill: none; stroke: #b0b0b0; stroke-width: 0.8; stroke-linecap: square"/>
     </g>
     <g id="line2d_2">
      <defs>
       <path id="mfe3a5cd9aa" d="M 0 0 
L 0 3.5 
" style="stroke: #000000; stroke-width: 0.8"/>
      </defs>
      <g>
       <use xlink:href="#mfe3a5cd9aa" x="66.43746" y="306.627511" style="stroke: #000000; stroke-width: 0.8"/>
      </g>
     </g>
     <g id="text_1">
      <!-- $\mathdefault{1940}$ -->
      <g transform="translate(56.47479 320.54601) scale(0.1 -0.1)">
       <defs>
        <path id="CMR17-31" d="M 1702 4083 
C 1702 4217 1696 4224 1606 4224 
C 1357 3927 979 3833 621 3820 
C 602 3820 570 3820 563 3808 
C 557 3795 557 3782 557 3648 
C 755 3648 1088 3686 1344 3839 
L 1344 467 
C 1344 243 1331 166 781 166 
L 589 166 
L 589 0 
C 896 6 1216 12 1523 12 
C 1830 12 2150 6 2458 0 
L 2458 166 
L 2266 166 
C 1715 166 1702 236 1702 467 
L 1702 4083 
z
" transform="scale(0.015625)"/>
        <path id="CMR17-39" d="M 2253 1871 
C 2253 448 1670 25 1190 25 
C 1043 25 685 43 538 281 
C 704 256 826 345 826 505 
C 826 678 685 736 595 736 
C 538 736 365 710 365 492 
C 365 68 742 -128 1203 -128 
C 1939 -128 2688 665 2688 2090 
C 2688 3857 1971 4224 1485 4224 
C 851 4224 243 3664 243 2800 
C 243 2000 762 1408 1414 1408 
C 1952 1408 2189 1910 2253 2122 
L 2253 1871 
z
M 1427 1510 
C 1254 1510 1011 1542 813 1929 
C 678 2181 678 2477 678 2793 
C 678 3174 678 3438 858 3722 
C 947 3857 1114 4076 1485 4076 
C 2240 4076 2240 2909 2240 2651 
C 2240 2193 2035 1510 1427 1510 
z
" transform="scale(0.015625)"/>
        <path id="CMR17-34" d="M 2150 4147 
C 2150 4281 2144 4288 2029 4288 
L 128 1254 
L 128 1088 
L 1779 1088 
L 1779 460 
C 1779 230 1766 166 1318 166 
L 1197 166 
L 1197 0 
C 1402 12 1747 12 1965 12 
C 2182 12 2528 12 2733 0 
L 2733 166 
L 2611 166 
C 2163 166 2150 230 2150 460 
L 2150 1088 
L 2803 1088 
L 2803 1254 
L 2150 1254 
L 2150 4147 
z
M 1798 3723 
L 1798 1254 
L 256 1254 
L 1798 3723 
z
" transform="scale(0.015625)"/>
        <path id="CMR17-30" d="M 2688 2038 
C 2688 2430 2682 3099 2413 3613 
C 2176 4063 1798 4224 1466 4224 
C 1158 4224 768 4082 525 3620 
C 269 3137 243 2539 243 2038 
C 243 1671 250 1112 448 623 
C 723 -39 1216 -128 1466 -128 
C 1760 -128 2208 -7 2470 604 
C 2662 1048 2688 1568 2688 2038 
z
M 1466 -26 
C 1056 -26 813 328 723 816 
C 653 1196 653 1749 653 2109 
C 653 2604 653 3015 736 3407 
C 858 3954 1216 4121 1466 4121 
C 1728 4121 2067 3947 2189 3420 
C 2272 3054 2278 2623 2278 2109 
C 2278 1691 2278 1176 2202 797 
C 2067 96 1690 -26 1466 -26 
z
" transform="scale(0.015625)"/>
       </defs>
       <use xlink:href="#CMR17-31" transform="scale(0.996264)"/>
       <use xlink:href="#CMR17-39" transform="translate(45.690477 0) scale(0.996264)"/>
       <use xlink:href="#CMR17-34" transform="translate(91.380954 0) scale(0.996264)"/>
       <use xlink:href="#CMR17-30" transform="translate(137.071431 0) scale(0.996264)"/>
      </g>
     </g>
    </g>
    <g id="xtick_2">
     <g id="line2d_3">
      <path d="M 158.530334 306.627511 
L 158.530334 22.166376 
" clip-path="url(#pef19aaa56a)" style="fill: none; stroke: #b0b0b0; stroke-width: 0.8; stroke-linecap: square"/>
     </g>
     <g id="line2d_4">
      <g>
       <use xlink:href="#mfe3a5cd9aa" x="158.530334" y="306.627511" style="stroke: #000000; stroke-width: 0.8"/>
      </g>
     </g>
     <g id="text_2">
      <!-- $\mathdefault{1950}$ -->
      <g transform="translate(148.567664 320.54601) scale(0.1 -0.1)">
       <defs>
        <path id="CMR17-35" d="M 730 3750 
C 794 3724 1056 3641 1325 3641 
C 1920 3641 2246 3961 2432 4140 
C 2432 4191 2432 4224 2394 4224 
C 2387 4224 2374 4224 2323 4198 
C 2099 4102 1837 4032 1517 4032 
C 1325 4032 1037 4055 723 4191 
C 653 4224 640 4224 634 4224 
C 602 4224 595 4217 595 4090 
L 595 2231 
C 595 2113 595 2080 659 2080 
C 691 2080 704 2093 736 2139 
C 941 2435 1222 2560 1542 2560 
C 1766 2560 2246 2415 2246 1293 
C 2246 1087 2246 716 2054 422 
C 1894 159 1645 25 1370 25 
C 947 25 518 319 403 812 
C 429 806 480 793 506 793 
C 589 793 749 838 749 1036 
C 749 1209 627 1280 506 1280 
C 358 1280 262 1190 262 1011 
C 262 454 704 -128 1382 -128 
C 2042 -128 2669 441 2669 1267 
C 2669 2054 2170 2662 1549 2662 
C 1222 2662 947 2540 730 2304 
L 730 3750 
z
" transform="scale(0.015625)"/>
       </defs>
       <use xlink:href="#CMR17-31" transform="scale(0.996264)"/>
       <use xlink:href="#CMR17-39" transform="translate(45.690477 0) scale(0.996264)"/>
       <use xlink:href="#CMR17-35" transform="translate(91.380954 0) scale(0.996264)"/>
       <use xlink:href="#CMR17-30" transform="translate(137.071431 0) scale(0.996264)"/>
      </g>
     </g>
    </g>
    <g id="xtick_3">
     <g id="line2d_5">
      <path d="M 250.597998 306.627511 
L 250.597998 22.166376 
" clip-path="url(#pef19aaa56a)" style="fill: none; stroke: #b0b0b0; stroke-width: 0.8; stroke-linecap: square"/>
     </g>
     <g id="line2d_6">
      <g>
       <use xlink:href="#mfe3a5cd9aa" x="250.597998" y="306.627511" style="stroke: #000000; stroke-width: 0.8"/>
      </g>
     </g>
     <g id="text_3">
      <!-- $\mathdefault{1960}$ -->
      <g transform="translate(240.635327 320.54601) scale(0.1 -0.1)">
       <defs>
        <path id="CMR17-36" d="M 678 2198 
C 678 3712 1395 4076 1811 4076 
C 1946 4076 2272 4049 2400 3782 
C 2298 3782 2106 3782 2106 3558 
C 2106 3385 2246 3328 2336 3328 
C 2394 3328 2566 3353 2566 3571 
C 2566 3987 2246 4224 1805 4224 
C 1043 4224 243 3411 243 2011 
C 243 257 966 -128 1478 -128 
C 2099 -128 2688 431 2688 1295 
C 2688 2101 2170 2688 1517 2688 
C 1126 2688 838 2430 678 1979 
L 678 2198 
z
M 1478 25 
C 691 25 691 1212 691 1450 
C 691 1914 909 2585 1504 2585 
C 1613 2585 1926 2585 2138 2140 
C 2253 1889 2253 1624 2253 1302 
C 2253 954 2253 696 2118 438 
C 1978 173 1773 25 1478 25 
z
" transform="scale(0.015625)"/>
       </defs>
       <use xlink:href="#CMR17-31" transform="scale(0.996264)"/>
       <use xlink:href="#CMR17-39" transform="translate(45.690477 0) scale(0.996264)"/>
       <use xlink:href="#CMR17-36" transform="translate(91.380954 0) scale(0.996264)"/>
       <use xlink:href="#CMR17-30" transform="translate(137.071431 0) scale(0.996264)"/>
      </g>
     </g>
    </g>
    <g id="xtick_4">
     <g id="line2d_7">
      <path d="M 342.690872 306.627511 
L 342.690872 22.166376 
" clip-path="url(#pef19aaa56a)" style="fill: none; stroke: #b0b0b0; stroke-width: 0.8; stroke-linecap: square"/>
     </g>
     <g id="line2d_8">
      <g>
       <use xlink:href="#mfe3a5cd9aa" x="342.690872" y="306.627511" style="stroke: #000000; stroke-width: 0.8"/>
      </g>
     </g>
     <g id="text_4">
      <!-- $\mathdefault{1970}$ -->
      <g transform="translate(332.728201 320.54601) scale(0.1 -0.1)">
       <defs>
        <path id="CMR17-37" d="M 2886 3955 
L 2886 4096 
L 1382 4096 
C 634 4096 621 4166 595 4288 
L 480 4288 
L 294 3104 
L 410 3104 
C 429 3226 474 3552 550 3673 
C 589 3724 1062 3724 1171 3724 
L 2579 3724 
L 1869 2670 
C 1395 1961 1069 1003 1069 166 
C 1069 89 1069 -128 1299 -128 
C 1530 -128 1530 89 1530 172 
L 1530 466 
C 1530 1514 1709 2204 2003 2644 
L 2886 3955 
z
" transform="scale(0.015625)"/>
       </defs>
       <use xlink:href="#CMR17-31" transform="scale(0.996264)"/>
       <use xlink:href="#CMR17-39" transform="translate(45.690477 0) scale(0.996264)"/>
       <use xlink:href="#CMR17-37" transform="translate(91.380954 0) scale(0.996264)"/>
       <use xlink:href="#CMR17-30" transform="translate(137.071431 0) scale(0.996264)"/>
      </g>
     </g>
    </g>
    <g id="xtick_5">
     <g id="line2d_9">
      <path d="M 434.758536 306.627511 
L 434.758536 22.166376 
" clip-path="url(#pef19aaa56a)" style="fill: none; stroke: #b0b0b0; stroke-width: 0.8; stroke-linecap: square"/>
     </g>
     <g id="line2d_10">
      <g>
       <use xlink:href="#mfe3a5cd9aa" x="434.758536" y="306.627511" style="stroke: #000000; stroke-width: 0.8"/>
      </g>
     </g>
     <g id="text_5">
      <!-- $\mathdefault{1980}$ -->
      <g transform="translate(424.795865 320.54601) scale(0.1 -0.1)">
       <defs>
        <path id="CMR17-38" d="M 1741 2289 
C 2144 2494 2554 2803 2554 3298 
C 2554 3884 1990 4224 1472 4224 
C 890 4224 378 3800 378 3215 
C 378 3054 416 2777 666 2533 
C 730 2469 998 2276 1171 2154 
C 883 2006 211 1652 211 945 
C 211 282 838 -128 1459 -128 
C 2144 -128 2720 366 2720 1022 
C 2720 1607 2330 1877 2074 2051 
L 1741 2289 
z
M 902 2855 
C 851 2887 595 3086 595 3388 
C 595 3781 998 4076 1459 4076 
C 1965 4076 2336 3716 2336 3298 
C 2336 2700 1670 2359 1638 2359 
C 1632 2359 1626 2359 1574 2398 
L 902 2855 
z
M 2080 1536 
C 2176 1466 2483 1253 2483 861 
C 2483 385 2010 25 1472 25 
C 890 25 448 443 448 951 
C 448 1459 838 1884 1280 2083 
L 2080 1536 
z
" transform="scale(0.015625)"/>
       </defs>
       <use xlink:href="#CMR17-31" transform="scale(0.996264)"/>
       <use xlink:href="#CMR17-39" transform="translate(45.690477 0) scale(0.996264)"/>
       <use xlink:href="#CMR17-38" transform="translate(91.380954 0) scale(0.996264)"/>
       <use xlink:href="#CMR17-30" transform="translate(137.071431 0) scale(0.996264)"/>
      </g>
     </g>
    </g>
    <g id="xtick_6">
     <g id="line2d_11">
      <path d="M 526.85141 306.627511 
L 526.85141 22.166376 
" clip-path="url(#pef19aaa56a)" style="fill: none; stroke: #b0b0b0; stroke-width: 0.8; stroke-linecap: square"/>
     </g>
     <g id="line2d_12">
      <g>
       <use xlink:href="#mfe3a5cd9aa" x="526.85141" y="306.627511" style="stroke: #000000; stroke-width: 0.8"/>
      </g>
     </g>
     <g id="text_6">
      <!-- $\mathdefault{1990}$ -->
      <g transform="translate(516.888739 320.54601) scale(0.1 -0.1)">
       <use xlink:href="#CMR17-31" transform="scale(0.996264)"/>
       <use xlink:href="#CMR17-39" transform="translate(45.690477 0) scale(0.996264)"/>
       <use xlink:href="#CMR17-39" transform="translate(91.380954 0) scale(0.996264)"/>
       <use xlink:href="#CMR17-30" transform="translate(137.071431 0) scale(0.996264)"/>
      </g>
     </g>
    </g>
    <g id="xtick_7">
     <g id="line2d_13">
      <path d="M 618.919073 306.627511 
L 618.919073 22.166376 
" clip-path="url(#pef19aaa56a)" style="fill: none; stroke: #b0b0b0; stroke-width: 0.8; stroke-linecap: square"/>
     </g>
     <g id="line2d_14">
      <g>
       <use xlink:href="#mfe3a5cd9aa" x="618.919073" y="306.627511" style="stroke: #000000; stroke-width: 0.8"/>
      </g>
     </g>
     <g id="text_7">
      <!-- $\mathdefault{2000}$ -->
      <g transform="translate(608.956403 320.54601) scale(0.1 -0.1)">
       <defs>
        <path id="CMR17-32" d="M 2669 990 
L 2554 990 
C 2490 537 2438 460 2413 422 
C 2381 371 1920 371 1830 371 
L 602 371 
C 832 620 1280 1073 1824 1596 
C 2214 1966 2669 2400 2669 3033 
C 2669 3788 2067 4224 1395 4224 
C 691 4224 262 3603 262 3027 
C 262 2777 448 2745 525 2745 
C 589 2745 781 2783 781 3007 
C 781 3206 614 3264 525 3264 
C 486 3264 448 3257 422 3244 
C 544 3788 915 4057 1306 4057 
C 1862 4057 2227 3616 2227 3033 
C 2227 2477 1901 1998 1536 1583 
L 262 147 
L 262 0 
L 2515 0 
L 2669 990 
z
" transform="scale(0.015625)"/>
       </defs>
       <use xlink:href="#CMR17-32" transform="scale(0.996264)"/>
       <use xlink:href="#CMR17-30" transform="translate(45.690477 0) scale(0.996264)"/>
       <use xlink:href="#CMR17-30" transform="translate(91.380954 0) scale(0.996264)"/>
       <use xlink:href="#CMR17-30" transform="translate(137.071431 0) scale(0.996264)"/>
      </g>
     </g>
    </g>
    <g id="xtick_8">
     <g id="line2d_15">
      <path d="M 711.011947 306.627511 
L 711.011947 22.166376 
" clip-path="url(#pef19aaa56a)" style="fill: none; stroke: #b0b0b0; stroke-width: 0.8; stroke-linecap: square"/>
     </g>
     <g id="line2d_16">
      <g>
       <use xlink:href="#mfe3a5cd9aa" x="711.011947" y="306.627511" style="stroke: #000000; stroke-width: 0.8"/>
      </g>
     </g>
     <g id="text_8">
      <!-- $\mathdefault{2010}$ -->
      <g transform="translate(701.049277 320.54601) scale(0.1 -0.1)">
       <use xlink:href="#CMR17-32" transform="scale(0.996264)"/>
       <use xlink:href="#CMR17-30" transform="translate(45.690477 0) scale(0.996264)"/>
       <use xlink:href="#CMR17-31" transform="translate(91.380954 0) scale(0.996264)"/>
       <use xlink:href="#CMR17-30" transform="translate(137.071431 0) scale(0.996264)"/>
      </g>
     </g>
    </g>
    <g id="xtick_9">
     <g id="line2d_17">
      <path d="M 803.079611 306.627511 
L 803.079611 22.166376 
" clip-path="url(#pef19aaa56a)" style="fill: none; stroke: #b0b0b0; stroke-width: 0.8; stroke-linecap: square"/>
     </g>
     <g id="line2d_18">
      <g>
       <use xlink:href="#mfe3a5cd9aa" x="803.079611" y="306.627511" style="stroke: #000000; stroke-width: 0.8"/>
      </g>
     </g>
     <g id="text_9">
      <!-- $\mathdefault{2020}$ -->
      <g transform="translate(793.116941 320.54601) scale(0.1 -0.1)">
       <use xlink:href="#CMR17-32" transform="scale(0.996264)"/>
       <use xlink:href="#CMR17-30" transform="translate(45.690477 0) scale(0.996264)"/>
       <use xlink:href="#CMR17-32" transform="translate(91.380954 0) scale(0.996264)"/>
       <use xlink:href="#CMR17-30" transform="translate(137.071431 0) scale(0.996264)"/>
      </g>
     </g>
    </g>
   </g>
   <g id="matplotlib.axis_2">
    <g id="ytick_1">
     <g id="line2d_19">
      <path d="M 29.144006 306.627511 
L 849.6 306.627511 
" clip-path="url(#pef19aaa56a)" style="fill: none; stroke: #b0b0b0; stroke-width: 0.8; stroke-linecap: square"/>
     </g>
     <g id="line2d_20">
      <defs>
       <path id="m40ac5c2298" d="M 0 0 
L -3.5 0 
" style="stroke: #000000; stroke-width: 0.8"/>
      </defs>
      <g>
       <use xlink:href="#m40ac5c2298" x="29.144006" y="306.627511" style="stroke: #000000; stroke-width: 0.8"/>
      </g>
     </g>
     <g id="text_10">
      <!-- $\mathdefault{0}$ -->
      <g transform="translate(17.162671 310.086761) scale(0.1 -0.1)">
       <use xlink:href="#CMR17-30" transform="scale(0.996264)"/>
      </g>
     </g>
    </g>
    <g id="ytick_2">
     <g id="line2d_21">
      <path d="M 29.144006 256.546326 
L 849.6 256.546326 
" clip-path="url(#pef19aaa56a)" style="fill: none; stroke: #b0b0b0; stroke-width: 0.8; stroke-linecap: square"/>
     </g>
     <g id="line2d_22">
      <g>
       <use xlink:href="#m40ac5c2298" x="29.144006" y="256.546326" style="stroke: #000000; stroke-width: 0.8"/>
      </g>
     </g>
     <g id="text_11">
      <!-- $\mathdefault{50}$ -->
      <g transform="translate(12.181335 260.005575) scale(0.1 -0.1)">
       <use xlink:href="#CMR17-35" transform="scale(0.996264)"/>
       <use xlink:href="#CMR17-30" transform="translate(45.690477 0) scale(0.996264)"/>
      </g>
     </g>
    </g>
    <g id="ytick_3">
     <g id="line2d_23">
      <path d="M 29.144006 206.46514 
L 849.6 206.46514 
" clip-path="url(#pef19aaa56a)" style="fill: none; stroke: #b0b0b0; stroke-width: 0.8; stroke-linecap: square"/>
     </g>
     <g id="line2d_24">
      <g>
       <use xlink:href="#m40ac5c2298" x="29.144006" y="206.46514" style="stroke: #000000; stroke-width: 0.8"/>
      </g>
     </g>
     <g id="text_12">
      <!-- $\mathdefault{100}$ -->
      <g transform="translate(7.2 209.924389) scale(0.1 -0.1)">
       <use xlink:href="#CMR17-31" transform="scale(0.996264)"/>
       <use xlink:href="#CMR17-30" transform="translate(45.690477 0) scale(0.996264)"/>
       <use xlink:href="#CMR17-30" transform="translate(91.380954 0) scale(0.996264)"/>
      </g>
     </g>
    </g>
    <g id="ytick_4">
     <g id="line2d_25">
      <path d="M 29.144006 156.383954 
L 849.6 156.383954 
" clip-path="url(#pef19aaa56a)" style="fill: none; stroke: #b0b0b0; stroke-width: 0.8; stroke-linecap: square"/>
     </g>
     <g id="line2d_26">
      <g>
       <use xlink:href="#m40ac5c2298" x="29.144006" y="156.383954" style="stroke: #000000; stroke-width: 0.8"/>
      </g>
     </g>
     <g id="text_13">
      <!-- $\mathdefault{150}$ -->
      <g transform="translate(7.2 159.843203) scale(0.1 -0.1)">
       <use xlink:href="#CMR17-31" transform="scale(0.996264)"/>
       <use xlink:href="#CMR17-35" transform="translate(45.690477 0) scale(0.996264)"/>
       <use xlink:href="#CMR17-30" transform="translate(91.380954 0) scale(0.996264)"/>
      </g>
     </g>
    </g>
    <g id="ytick_5">
     <g id="line2d_27">
      <path d="M 29.144006 106.302768 
L 849.6 106.302768 
" clip-path="url(#pef19aaa56a)" style="fill: none; stroke: #b0b0b0; stroke-width: 0.8; stroke-linecap: square"/>
     </g>
     <g id="line2d_28">
      <g>
       <use xlink:href="#m40ac5c2298" x="29.144006" y="106.302768" style="stroke: #000000; stroke-width: 0.8"/>
      </g>
     </g>
     <g id="text_14">
      <!-- $\mathdefault{200}$ -->
      <g transform="translate(7.2 109.762017) scale(0.1 -0.1)">
       <use xlink:href="#CMR17-32" transform="scale(0.996264)"/>
       <use xlink:href="#CMR17-30" transform="translate(45.690477 0) scale(0.996264)"/>
       <use xlink:href="#CMR17-30" transform="translate(91.380954 0) scale(0.996264)"/>
      </g>
     </g>
    </g>
    <g id="ytick_6">
     <g id="line2d_29">
      <path d="M 29.144006 56.221582 
L 849.6 56.221582 
" clip-path="url(#pef19aaa56a)" style="fill: none; stroke: #b0b0b0; stroke-width: 0.8; stroke-linecap: square"/>
     </g>
     <g id="line2d_30">
      <g>
       <use xlink:href="#m40ac5c2298" x="29.144006" y="56.221582" style="stroke: #000000; stroke-width: 0.8"/>
      </g>
     </g>
     <g id="text_15">
      <!-- $\mathdefault{250}$ -->
      <g transform="translate(7.2 59.680832) scale(0.1 -0.1)">
       <use xlink:href="#CMR17-32" transform="scale(0.996264)"/>
       <use xlink:href="#CMR17-35" transform="translate(45.690477 0) scale(0.996264)"/>
       <use xlink:href="#CMR17-30" transform="translate(91.380954 0) scale(0.996264)"/>
      </g>
     </g>
    </g>
   </g>
   <g id="line2d_31">
    <path d="M 66.43746 32.182613 
L 94.067843 154.380707 
L 121.698226 101.29465 
L 149.32861 127.336866 
L 176.933783 100.293026 
L 204.564166 76.254057 
L 232.194549 110.309263 
L 259.824932 83.265423 
L 287.430105 89.275165 
L 315.060489 89.275165 
L 342.690872 129.340114 
L 370.321255 191.440784 
L 397.926428 112.31251 
L 425.556811 37.190732 
L 453.187194 79.258928 
L 480.817578 74.250809 
L 508.422751 173.411557 
L 536.053134 115.317382 
L 563.683517 71.245938 
L 591.3139 151.375835 
L 618.919073 144.364469 
L 646.549457 80.260552 
L 674.17984 159.388825 
L 701.810223 93.28166 
L 729.415396 122.328748 
L 757.045779 151.375835 
L 784.676162 178.419676 
L 812.306546 209.470011 
" clip-path="url(#pef19aaa56a)" style="fill: none; stroke: #0000ff; stroke-width: 1.5; stroke-linecap: square"/>
    <defs>
     <path id="mbb56207927" d="M 0 1.5 
C 0.397805 1.5 0.77937 1.341951 1.06066 1.06066 
C 1.341951 0.77937 1.5 0.397805 1.5 0 
C 1.5 -0.397805 1.341951 -0.77937 1.06066 -1.06066 
C 0.77937 -1.341951 0.397805 -1.5 0 -1.5 
C -0.397805 -1.5 -0.77937 -1.341951 -1.06066 -1.06066 
C -1.341951 -0.77937 -1.5 -0.397805 -1.5 0 
C -1.5 0.397805 -1.341951 0.77937 -1.06066 1.06066 
C -0.77937 1.341951 -0.397805 1.5 0 1.5 
z
" style="stroke: #0000ff"/>
    </defs>
    <g clip-path="url(#pef19aaa56a)">
     <use xlink:href="#mbb56207927" x="66.43746" y="32.182613" style="fill: #0000ff; stroke: #0000ff"/>
     <use xlink:href="#mbb56207927" x="94.067843" y="154.380707" style="fill: #0000ff; stroke: #0000ff"/>
     <use xlink:href="#mbb56207927" x="121.698226" y="101.29465" style="fill: #0000ff; stroke: #0000ff"/>
     <use xlink:href="#mbb56207927" x="149.32861" y="127.336866" style="fill: #0000ff; stroke: #0000ff"/>
     <use xlink:href="#mbb56207927" x="176.933783" y="100.293026" style="fill: #0000ff; stroke: #0000ff"/>
     <use xlink:href="#mbb56207927" x="204.564166" y="76.254057" style="fill: #0000ff; stroke: #0000ff"/>
     <use xlink:href="#mbb56207927" x="232.194549" y="110.309263" style="fill: #0000ff; stroke: #0000ff"/>
     <use xlink:href="#mbb56207927" x="259.824932" y="83.265423" style="fill: #0000ff; stroke: #0000ff"/>
     <use xlink:href="#mbb56207927" x="287.430105" y="89.275165" style="fill: #0000ff; stroke: #0000ff"/>
     <use xlink:href="#mbb56207927" x="315.060489" y="89.275165" style="fill: #0000ff; stroke: #0000ff"/>
     <use xlink:href="#mbb56207927" x="342.690872" y="129.340114" style="fill: #0000ff; stroke: #0000ff"/>
     <use xlink:href="#mbb56207927" x="370.321255" y="191.440784" style="fill: #0000ff; stroke: #0000ff"/>
     <use xlink:href="#mbb56207927" x="397.926428" y="112.31251" style="fill: #0000ff; stroke: #0000ff"/>
     <use xlink:href="#mbb56207927" x="425.556811" y="37.190732" style="fill: #0000ff; stroke: #0000ff"/>
     <use xlink:href="#mbb56207927" x="453.187194" y="79.258928" style="fill: #0000ff; stroke: #0000ff"/>
     <use xlink:href="#mbb56207927" x="480.817578" y="74.250809" style="fill: #0000ff; stroke: #0000ff"/>
     <use xlink:href="#mbb56207927" x="508.422751" y="173.411557" style="fill: #0000ff; stroke: #0000ff"/>
     <use xlink:href="#mbb56207927" x="536.053134" y="115.317382" style="fill: #0000ff; stroke: #0000ff"/>
     <use xlink:href="#mbb56207927" x="563.683517" y="71.245938" style="fill: #0000ff; stroke: #0000ff"/>
     <use xlink:href="#mbb56207927" x="591.3139" y="151.375835" style="fill: #0000ff; stroke: #0000ff"/>
     <use xlink:href="#mbb56207927" x="618.919073" y="144.364469" style="fill: #0000ff; stroke: #0000ff"/>
     <use xlink:href="#mbb56207927" x="646.549457" y="80.260552" style="fill: #0000ff; stroke: #0000ff"/>
     <use xlink:href="#mbb56207927" x="674.17984" y="159.388825" style="fill: #0000ff; stroke: #0000ff"/>
     <use xlink:href="#mbb56207927" x="701.810223" y="93.28166" style="fill: #0000ff; stroke: #0000ff"/>
     <use xlink:href="#mbb56207927" x="729.415396" y="122.328748" style="fill: #0000ff; stroke: #0000ff"/>
     <use xlink:href="#mbb56207927" x="757.045779" y="151.375835" style="fill: #0000ff; stroke: #0000ff"/>
     <use xlink:href="#mbb56207927" x="784.676162" y="178.419676" style="fill: #0000ff; stroke: #0000ff"/>
     <use xlink:href="#mbb56207927" x="812.306546" y="209.470011" style="fill: #0000ff; stroke: #0000ff"/>
    </g>
   </g>
   <g id="patch_3">
    <path d="M 29.144006 306.627511 
L 29.144006 22.166376 
" style="fill: none; stroke: #000000; stroke-width: 0.8; stroke-linejoin: miter; stroke-linecap: square"/>
   </g>
   <g id="patch_4">
    <path d="M 849.6 306.627511 
L 849.6 22.166376 
" style="fill: none; stroke: #000000; stroke-width: 0.8; stroke-linejoin: miter; stroke-linecap: square"/>
   </g>
   <g id="patch_5">
    <path d="M 29.144006 306.627511 
L 849.6 306.627511 
" style="fill: none; stroke: #000000; stroke-width: 0.8; stroke-linejoin: miter; stroke-linecap: square"/>
   </g>
   <g id="patch_6">
    <path d="M 29.144006 22.166376 
L 849.6 22.166376 
" style="fill: none; stroke: #000000; stroke-width: 0.8; stroke-linejoin: miter; stroke-linecap: square"/>
   </g>
   <g id="text_16">
    <!-- Change of hot and cold days in Bremen from 1940 - 2022 (3 year intervals) -->
    <g transform="translate(254.76019 16.166376) scale(0.12 -0.12)">
     <defs>
      <path id="CMSS17-43" d="M 3501 705 
C 3072 416 2874 332 2355 332 
C 1459 332 934 1304 934 2191 
C 934 3137 1472 4070 2381 4070 
C 2790 4070 3059 3954 3386 3748 
L 3475 4255 
C 3168 4409 2778 4480 2387 4480 
C 1158 4480 397 3343 397 2191 
C 397 924 1299 -77 2323 -77 
C 2874 -77 3066 -32 3539 268 
L 3501 705 
z
" transform="scale(0.015625)"/>
      <path id="CMSS17-68" d="M 2618 1878 
C 2618 2283 2522 2816 1798 2816 
C 1395 2816 1133 2617 947 2399 
L 947 4416 
L 474 4416 
L 474 0 
L 960 0 
L 960 1556 
C 960 1962 1114 2425 1549 2425 
C 2112 2425 2131 2045 2131 1826 
L 2131 0 
L 2618 0 
L 2618 1878 
z
" transform="scale(0.015625)"/>
      <path id="CMSS17-61" d="M 2406 1789 
C 2406 2399 1978 2816 1402 2816 
C 1120 2816 813 2764 461 2559 
L 499 2133 
C 659 2250 934 2438 1395 2438 
C 1722 2438 1920 2185 1920 1782 
L 1920 1536 
C 896 1504 256 1209 256 711 
C 256 452 416 -64 947 -64 
C 1043 -64 1562 -52 1933 224 
L 1933 -13 
L 2406 -13 
L 2406 1789 
z
M 1920 824 
C 1920 711 1920 559 1728 446 
C 1562 339 1350 326 1261 326 
C 941 326 723 503 723 723 
C 723 1165 1722 1209 1920 1216 
L 1920 824 
z
" transform="scale(0.015625)"/>
      <path id="CMSS17-6e" d="M 2618 1878 
C 2618 2283 2522 2816 1798 2816 
C 1389 2816 1120 2604 941 2386 
L 941 2783 
L 474 2783 
L 474 0 
L 960 0 
L 960 1556 
C 960 1962 1114 2425 1549 2425 
C 2112 2425 2131 2045 2131 1826 
L 2131 0 
L 2618 0 
L 2618 1878 
z
" transform="scale(0.015625)"/>
      <path id="CMSS17-67" d="M 2848 2816 
C 2483 2809 2170 2739 1914 2617 
C 1702 2783 1485 2816 1338 2816 
C 781 2816 358 2356 358 1824 
C 358 1481 550 1222 563 1209 
C 448 1049 384 876 384 684 
C 384 460 474 300 544 211 
C 211 6 166 -308 166 -429 
C 166 -896 749 -1280 1498 -1280 
C 2253 -1280 2835 -896 2835 -423 
C 2835 460 1856 467 1587 467 
L 1069 467 
C 973 467 717 467 717 793 
C 717 921 774 1004 781 1011 
C 877 940 1075 832 1338 832 
C 1869 832 2310 1279 2310 1824 
C 2310 2128 2170 2349 2112 2425 
L 2131 2425 
C 2150 2425 2419 2444 2515 2444 
C 2720 2444 2739 2438 2918 2419 
L 2848 2816 
z
M 1338 1184 
C 1120 1184 813 1317 813 1824 
C 813 2375 1165 2463 1331 2463 
C 1549 2463 1856 2330 1856 1824 
C 1856 1272 1504 1184 1338 1184 
z
M 1581 0 
C 1734 0 2381 0 2381 -436 
C 2381 -711 1984 -928 1504 -928 
C 1018 -928 621 -717 621 -429 
C 621 -397 621 0 1062 0 
L 1581 0 
z
" transform="scale(0.015625)"/>
      <path id="CMSS17-65" d="M 2502 1375 
C 2502 1587 2490 2001 2285 2347 
C 2061 2713 1696 2816 1421 2816 
C 755 2816 192 2184 192 1363 
C 192 579 774 -64 1510 -64 
C 1798 -64 2150 19 2470 249 
C 2470 275 2458 414 2451 421 
C 2451 433 2432 629 2432 655 
C 2125 408 1773 326 1517 326 
C 1107 326 666 667 646 1375 
L 2502 1375 
z
M 698 1728 
C 781 2086 1062 2425 1421 2425 
C 1517 2425 1965 2412 2080 1728 
L 698 1728 
z
" transform="scale(0.015625)"/>
      <path id="CMSS17-6f" d="M 2829 1356 
C 2829 2175 2221 2816 1504 2816 
C 768 2816 173 2156 173 1356 
C 173 544 787 -64 1498 -64 
C 2227 -64 2829 563 2829 1356 
z
M 1504 339 
C 1050 339 659 710 659 1407 
C 659 2150 1114 2425 1498 2425 
C 1914 2425 2342 2124 2342 1407 
C 2342 684 1926 339 1504 339 
z
" transform="scale(0.015625)"/>
      <path id="CMSS17-66" d="M 1075 2380 
L 1722 2380 
L 1722 2752 
L 1062 2752 
L 1062 3563 
C 1062 4013 1408 4089 1606 4089 
C 1670 4089 1850 4089 2080 4007 
L 2080 4428 
C 1933 4460 1754 4480 1613 4480 
C 1018 4480 602 3994 602 3366 
L 602 2752 
L 160 2752 
L 160 2380 
L 602 2380 
L 602 0 
L 1075 0 
L 1075 2380 
z
" transform="scale(0.015625)"/>
      <path id="CMSS17-74" d="M 1069 2380 
L 1901 2380 
L 1901 2752 
L 1069 2752 
L 1069 3520 
L 614 3520 
L 614 2752 
L 109 2752 
L 109 2380 
L 602 2380 
L 602 751 
C 602 384 685 -64 1107 -64 
C 1427 -64 1722 25 2003 172 
L 1901 551 
C 1747 416 1562 339 1363 339 
C 1082 339 1069 699 1069 860 
L 1069 2380 
z
" transform="scale(0.015625)"/>
      <path id="CMSS17-64" d="M 2611 4416 
L 2138 4416 
L 2138 2495 
C 1939 2662 1613 2816 1254 2816 
C 672 2816 211 2179 211 1375 
C 211 572 666 -64 1235 -64 
C 1677 -64 1971 172 2125 307 
L 2125 -13 
L 2611 -13 
L 2611 4416 
z
M 2125 851 
C 2125 760 2125 663 1926 488 
C 1798 378 1645 326 1498 326 
C 1152 326 698 585 698 1369 
C 698 2185 1210 2425 1562 2425 
C 1798 2425 1990 2308 2125 2114 
L 2125 851 
z
" transform="scale(0.015625)"/>
      <path id="CMSS17-63" d="M 2464 2540 
C 2464 2585 2170 2713 2093 2739 
C 1882 2816 1613 2816 1542 2816 
C 710 2816 211 2092 211 1363 
C 211 595 768 -64 1517 -64 
C 1946 -64 2253 76 2502 243 
L 2464 665 
C 2189 454 1869 339 1523 339 
C 1024 339 698 774 698 1369 
C 698 1830 909 2412 1549 2412 
C 1901 2412 2099 2342 2394 2143 
L 2464 2540 
z
" transform="scale(0.015625)"/>
      <path id="CMSS17-6c" d="M 947 4416 
L 474 4416 
L 474 0 
L 947 0 
L 947 4416 
z
" transform="scale(0.015625)"/>
      <path id="CMSS17-79" d="M 2675 2752 
L 2176 2752 
C 1632 1293 1446 701 1434 383 
L 1427 383 
C 1408 695 1126 1459 902 2006 
L 602 2752 
L 83 2752 
L 1216 14 
C 1146 -177 1043 -464 1011 -527 
C 870 -884 774 -884 672 -884 
C 646 -884 442 -877 211 -807 
L 250 -1229 
C 410 -1261 570 -1280 685 -1280 
C 845 -1280 1165 -1280 1459 -495 
L 2675 2752 
z
" transform="scale(0.015625)"/>
      <path id="CMSS17-73" d="M 2061 2623 
C 1683 2803 1389 2816 1197 2816 
C 742 2816 198 2655 198 2009 
C 198 1363 902 1222 1094 1183 
C 1389 1126 1715 1062 1715 742 
C 1715 339 1254 339 1171 339 
C 915 339 563 409 243 639 
L 166 211 
C 531 0 883 -64 1178 -64 
C 1965 -64 2163 416 2163 780 
C 2163 1094 1984 1305 1862 1401 
C 1651 1567 1574 1587 1050 1695 
C 960 1708 646 1779 646 2067 
C 646 2431 1050 2431 1139 2431 
C 1555 2431 1811 2303 1984 2207 
L 2061 2623 
z
" transform="scale(0.015625)"/>
      <path id="CMSS17-69" d="M 979 4224 
L 442 4224 
L 442 3686 
L 979 3686 
L 979 4224 
z
M 947 2752 
L 474 2752 
L 474 0 
L 947 0 
L 947 2752 
z
" transform="scale(0.015625)"/>
      <path id="CMSS17-42" d="M 570 4416 
L 570 0 
L 2163 0 
C 3034 0 3667 575 3667 1200 
C 3667 1684 3251 2175 2502 2316 
C 3334 2559 3501 3039 3501 3311 
C 3501 3880 2874 4416 1997 4416 
L 570 4416 
z
M 1088 2496 
L 1088 4057 
L 1824 4057 
C 2483 4057 3002 3722 3002 3305 
C 3002 2925 2592 2496 1766 2496 
L 1088 2496 
z
M 1088 358 
L 1088 2105 
L 1939 2105 
C 2630 2105 3162 1678 3162 1206 
C 3162 772 2694 358 1984 358 
L 1088 358 
z
" transform="scale(0.015625)"/>
      <path id="CMSS17-72" d="M 954 1369 
C 954 1974 1395 2379 1958 2392 
L 1958 2816 
C 1549 2809 1165 2604 934 2270 
L 934 2783 
L 480 2783 
L 480 0 
L 954 0 
L 954 1369 
z
" transform="scale(0.015625)"/>
      <path id="CMSS17-6d" d="M 4288 1878 
C 4288 2309 4179 2816 3462 2816 
C 2982 2816 2694 2515 2566 2328 
C 2451 2668 2182 2816 1798 2816 
C 1363 2816 1088 2566 941 2386 
L 941 2783 
L 474 2783 
L 474 0 
L 960 0 
L 960 1556 
C 960 1936 1101 2425 1555 2425 
C 2138 2425 2138 2013 2138 1826 
L 2138 0 
L 2624 0 
L 2624 1556 
C 2624 1936 2765 2425 3219 2425 
C 3802 2425 3802 2013 3802 1826 
L 3802 0 
L 4288 0 
L 4288 1878 
z
" transform="scale(0.015625)"/>
      <path id="CMSS17-31" d="M 1818 4288 
L 1696 4288 
C 1350 3949 947 3902 538 3891 
L 538 3520 
C 723 3526 1024 3539 1325 3673 
L 1325 371 
L 570 371 
L 570 0 
L 2573 0 
L 2573 371 
L 1818 371 
L 1818 4288 
z
" transform="scale(0.015625)"/>
      <path id="CMSS17-39" d="M 435 172 
C 614 19 845 -128 1235 -128 
C 2010 -128 2752 738 2752 2136 
C 2752 3987 1952 4288 1523 4288 
C 1094 4288 819 4095 582 3789 
C 301 3438 250 3125 250 2761 
C 250 2327 326 2059 506 1753 
C 749 1356 973 1273 1222 1273 
C 1600 1273 1978 1459 2234 1778 
C 2189 908 1798 268 1235 268 
C 1005 268 819 340 634 516 
L 435 172 
z
M 2214 2774 
C 2221 2729 2221 2646 2221 2621 
C 2221 2085 1914 1664 1466 1664 
C 1171 1664 1018 1817 902 2015 
C 762 2263 755 2506 755 2761 
C 755 3010 755 3284 934 3559 
C 1069 3757 1235 3897 1523 3897 
C 2112 3897 2208 3036 2214 2774 
z
" transform="scale(0.015625)"/>
      <path id="CMSS17-34" d="M 2253 1088 
L 2835 1088 
L 2835 1478 
L 2253 1478 
L 2253 4224 
L 1690 4224 
L 166 1478 
L 166 1088 
L 1747 1088 
L 1747 0 
L 2253 0 
L 2253 1088 
z
M 659 1478 
C 1030 2139 1766 3474 1766 3927 
L 1766 1478 
L 659 1478 
z
" transform="scale(0.015625)"/>
      <path id="CMSS17-30" d="M 2758 2073 
C 2758 2439 2752 3120 2490 3647 
C 2227 4153 1805 4288 1504 4288 
C 1069 4288 698 4031 506 3621 
C 301 3191 243 2748 243 2073 
C 243 1611 262 1046 493 551 
C 755 6 1197 -128 1498 -128 
C 1894 -128 2278 83 2496 525 
C 2720 988 2758 1495 2758 2073 
z
M 1498 262 
C 1011 262 864 821 819 1007 
C 742 1328 730 1636 730 2144 
C 730 2542 730 2992 851 3345 
C 998 3756 1254 3897 1498 3897 
C 1971 3897 2125 3422 2176 3255 
C 2272 2915 2272 2516 2272 2144 
C 2272 1546 2272 262 1498 262 
z
" transform="scale(0.015625)"/>
      <path id="CMSS17-2d" d="M 1664 1216 
L 1664 1587 
L 64 1587 
L 64 1216 
L 1664 1216 
z
" transform="scale(0.015625)"/>
      <path id="CMSS17-32" d="M 1651 1353 
C 1830 1538 2099 1761 2285 1984 
C 2464 2201 2701 2507 2701 2953 
C 2701 3655 2227 4288 1421 4288 
C 787 4288 422 3891 250 3272 
L 499 2928 
C 640 3508 838 3878 1338 3878 
C 1888 3878 2195 3431 2195 2940 
C 2195 2354 1747 1901 1408 1563 
C 1030 1187 659 805 301 409 
L 301 0 
L 2701 0 
L 2701 435 
L 1613 435 
C 1536 435 1459 428 1382 428 
L 742 428 
L 742 435 
L 1651 1353 
z
" transform="scale(0.015625)"/>
      <path id="CMSS17-28" d="M 1613 4800 
C 1267 4447 474 3627 474 1603 
C 474 -428 1267 -1242 1613 -1600 
L 2003 -1600 
C 1216 -781 960 366 960 1596 
C 960 2820 1203 3973 2003 4800 
L 1613 4800 
z
" transform="scale(0.015625)"/>
      <path id="CMSS17-33" d="M 1005 2060 
L 1440 2060 
C 2042 2060 2214 1532 2214 1164 
C 2214 662 1933 268 1472 268 
C 1114 268 608 449 320 926 
C 275 700 275 687 250 533 
C 550 89 1037 -128 1485 -128 
C 2214 -128 2752 481 2752 1158 
C 2752 1667 2400 2092 1920 2252 
C 2304 2463 2586 2860 2586 3321 
C 2586 3859 2093 4288 1491 4288 
C 941 4288 512 3948 333 3583 
C 378 3519 493 3334 550 3238 
C 691 3615 1056 3897 1485 3897 
C 1843 3897 2080 3660 2080 3321 
C 2080 2969 1856 2585 1478 2496 
C 1453 2496 1056 2457 1005 2451 
L 1005 2060 
z
" transform="scale(0.015625)"/>
      <path id="CMSS17-76" d="M 2675 2752 
L 2176 2752 
L 1747 1555 
C 1613 1164 1421 627 1389 352 
L 1382 352 
C 1370 467 1318 633 1286 748 
C 1248 889 1197 1056 1158 1171 
L 595 2752 
L 83 2752 
L 1094 0 
L 1664 0 
L 2675 2752 
z
" transform="scale(0.015625)"/>
      <path id="CMSS17-29" d="M 723 -1600 
C 1069 -1248 1862 -428 1862 1596 
C 1862 3627 1069 4440 723 4800 
L 333 4800 
C 1120 3979 1376 2833 1376 1603 
C 1376 379 1133 -774 333 -1600 
L 723 -1600 
z
" transform="scale(0.015625)"/>
     </defs>
     <use xlink:href="#CMSS17-43" transform="scale(0.996264)"/>
     <use xlink:href="#CMSS17-68" transform="translate(59.855772 0) scale(0.996264)"/>
     <use xlink:href="#CMSS17-61" transform="translate(108.060715 0) scale(0.996264)"/>
     <use xlink:href="#CMSS17-6e" transform="translate(152.982635 0) scale(0.996264)"/>
     <use xlink:href="#CMSS17-67" transform="translate(201.187578 0) scale(0.996264)"/>
     <use xlink:href="#CMSS17-65" transform="translate(248.031202 0) scale(0.996264)"/>
     <use xlink:href="#CMSS17-6f" transform="translate(320.899137 0) scale(0.996264)"/>
     <use xlink:href="#CMSS17-66" transform="translate(367.74276 0) scale(0.996264)"/>
     <use xlink:href="#CMSS17-68" transform="translate(427.598532 0) scale(0.996264)"/>
     <use xlink:href="#CMSS17-6f" transform="translate(475.803475 0) scale(0.996264)"/>
     <use xlink:href="#CMSS17-74" transform="translate(522.647099 0) scale(0.996264)"/>
     <use xlink:href="#CMSS17-61" transform="translate(587.707778 0) scale(0.996264)"/>
     <use xlink:href="#CMSS17-6e" transform="translate(632.629699 0) scale(0.996264)"/>
     <use xlink:href="#CMSS17-64" transform="translate(680.834642 0) scale(0.996264)"/>
     <use xlink:href="#CMSS17-63" transform="translate(760.268698 0) scale(0.996264)"/>
     <use xlink:href="#CMSS17-6f" transform="translate(801.90752 0) scale(0.996264)"/>
     <use xlink:href="#CMSS17-6c" transform="translate(848.751143 0) scale(0.996264)"/>
     <use xlink:href="#CMSS17-64" transform="translate(870.931866 0) scale(0.996264)"/>
     <use xlink:href="#CMSS17-64" transform="translate(950.365922 0) scale(0.996264)"/>
     <use xlink:href="#CMSS17-61" transform="translate(998.570865 0) scale(0.996264)"/>
     <use xlink:href="#CMSS17-79" transform="translate(1040.890332 0) scale(0.996264)"/>
     <use xlink:href="#CMSS17-73" transform="translate(1083.890474 0) scale(0.996264)"/>
     <use xlink:href="#CMSS17-69" transform="translate(1151.033128 0) scale(0.996264)"/>
     <use xlink:href="#CMSS17-6e" transform="translate(1173.213851 0) scale(0.996264)"/>
     <use xlink:href="#CMSS17-42" transform="translate(1252.647907 0) scale(0.996264)"/>
     <use xlink:href="#CMSS17-72" transform="translate(1314.985947 0) scale(0.996264)"/>
     <use xlink:href="#CMSS17-65" transform="translate(1346.89572 0) scale(0.996264)"/>
     <use xlink:href="#CMSS17-6d" transform="translate(1388.534542 0) scale(0.996264)"/>
     <use xlink:href="#CMSS17-65" transform="translate(1462.763797 0) scale(0.996264)"/>
     <use xlink:href="#CMSS17-6e" transform="translate(1504.402619 0) scale(0.996264)"/>
     <use xlink:href="#CMSS17-66" transform="translate(1583.836674 0) scale(0.996264)"/>
     <use xlink:href="#CMSS17-72" transform="translate(1612.463333 0) scale(0.996264)"/>
     <use xlink:href="#CMSS17-6f" transform="translate(1644.373106 0) scale(0.996264)"/>
     <use xlink:href="#CMSS17-6d" transform="translate(1691.216729 0) scale(0.996264)"/>
     <use xlink:href="#CMSS17-31" transform="translate(1796.675097 0) scale(0.996264)"/>
     <use xlink:href="#CMSS17-39" transform="translate(1843.51872 0) scale(0.996264)"/>
     <use xlink:href="#CMSS17-34" transform="translate(1890.362344 0) scale(0.996264)"/>
     <use xlink:href="#CMSS17-30" transform="translate(1937.205967 0) scale(0.996264)"/>
     <use xlink:href="#CMSS17-2d" transform="translate(2015.278703 0) scale(0.996264)"/>
     <use xlink:href="#CMSS17-32" transform="translate(2077.736929 0) scale(0.996264)"/>
     <use xlink:href="#CMSS17-30" transform="translate(2124.580552 0) scale(0.996264)"/>
     <use xlink:href="#CMSS17-32" transform="translate(2171.424176 0) scale(0.996264)"/>
     <use xlink:href="#CMSS17-32" transform="translate(2218.267799 0) scale(0.996264)"/>
     <use xlink:href="#CMSS17-28" transform="translate(2296.340536 0) scale(0.996264)"/>
     <use xlink:href="#CMSS17-33" transform="translate(2332.77445 0) scale(0.996264)"/>
     <use xlink:href="#CMSS17-79" transform="translate(2410.847186 0) scale(0.996264)"/>
     <use xlink:href="#CMSS17-65" transform="translate(2451.244874 0) scale(0.996264)"/>
     <use xlink:href="#CMSS17-61" transform="translate(2492.883696 0) scale(0.996264)"/>
     <use xlink:href="#CMSS17-72" transform="translate(2535.203163 0) scale(0.996264)"/>
     <use xlink:href="#CMSS17-69" transform="translate(2598.342048 0) scale(0.996264)"/>
     <use xlink:href="#CMSS17-6e" transform="translate(2620.522771 0) scale(0.996264)"/>
     <use xlink:href="#CMSS17-74" transform="translate(2668.727714 0) scale(0.996264)"/>
     <use xlink:href="#CMSS17-65" transform="translate(2702.559281 0) scale(0.996264)"/>
     <use xlink:href="#CMSS17-72" transform="translate(2744.198103 0) scale(0.996264)"/>
     <use xlink:href="#CMSS17-76" transform="translate(2776.107875 0) scale(0.996264)"/>
     <use xlink:href="#CMSS17-61" transform="translate(2819.108017 0) scale(0.996264)"/>
     <use xlink:href="#CMSS17-6c" transform="translate(2864.029938 0) scale(0.996264)"/>
     <use xlink:href="#CMSS17-73" transform="translate(2886.210661 0) scale(0.996264)"/>
     <use xlink:href="#CMSS17-29" transform="translate(2922.124203 0) scale(0.996264)"/>
    </g>
   </g>
   <g id="legend_1">
    <g id="patch_7">
     <path d="M 768.009638 44.103554 
L 842.6 44.103554 
Q 844.6 44.103554 844.6 42.103554 
L 844.6 29.166376 
Q 844.6 27.166376 842.6 27.166376 
L 768.009638 27.166376 
Q 766.009638 27.166376 766.009638 29.166376 
L 766.009638 42.103554 
Q 766.009638 44.103554 768.009638 44.103554 
z
" style="fill: #ffffff; opacity: 0.8; stroke: #cccccc; stroke-linejoin: miter"/>
    </g>
    <g id="line2d_32">
     <path d="M 770.009638 34.666376 
L 780.009638 34.666376 
L 790.009638 34.666376 
" style="fill: none; stroke: #0000ff; stroke-width: 1.5; stroke-linecap: square"/>
     <g>
      <use xlink:href="#mbb56207927" x="780.009638" y="34.666376" style="fill: #0000ff; stroke: #0000ff"/>
     </g>
    </g>
    <g id="text_17">
     <!-- Frost days -->
     <g transform="translate(798.009638 38.166376) scale(0.1 -0.1)">
      <defs>
       <path id="CMSS17-46" d="M 2918 1984 
L 2918 2374 
L 1101 2374 
L 1101 3993 
L 1882 3993 
C 1958 3993 2035 3987 2112 3987 
L 3168 3987 
L 3168 4403 
L 563 4403 
L 563 0 
L 1101 0 
L 1101 1984 
L 2918 1984 
z
" transform="scale(0.015625)"/>
      </defs>
      <use xlink:href="#CMSS17-46" transform="scale(0.996264)"/>
      <use xlink:href="#CMSS17-72" transform="translate(50.687105 0) scale(0.996264)"/>
      <use xlink:href="#CMSS17-6f" transform="translate(82.596878 0) scale(0.996264)"/>
      <use xlink:href="#CMSS17-73" transform="translate(129.440501 0) scale(0.996264)"/>
      <use xlink:href="#CMSS17-74" transform="translate(165.354043 0) scale(0.996264)"/>
      <use xlink:href="#CMSS17-64" transform="translate(230.414723 0) scale(0.996264)"/>
      <use xlink:href="#CMSS17-61" transform="translate(278.619666 0) scale(0.996264)"/>
      <use xlink:href="#CMSS17-79" transform="translate(320.939133 0) scale(0.996264)"/>
      <use xlink:href="#CMSS17-73" transform="translate(363.939274 0) scale(0.996264)"/>
     </g>
    </g>
   </g>
  </g>
  <g id="axes_2">
   <g id="patch_8">
    <path d="M 29.144006 617.744323 
L 849.6 617.744323 
L 849.6 333.283188 
L 29.144006 333.283188 
z
" style="fill: #ffffff"/>
   </g>
   <g id="matplotlib.axis_3">
    <g id="xtick_10">
     <g id="line2d_33">
      <path d="M 66.43746 617.744323 
L 66.43746 333.283188 
" clip-path="url(#pe86fffdc29)" style="fill: none; stroke: #b0b0b0; stroke-width: 0.8; stroke-linecap: square"/>
     </g>
     <g id="line2d_34">
      <g>
       <use xlink:href="#mfe3a5cd9aa" x="66.43746" y="617.744323" style="stroke: #000000; stroke-width: 0.8"/>
      </g>
     </g>
     <g id="text_18">
      <!-- $\mathdefault{1940}$ -->
      <g transform="translate(56.47479 631.662822) scale(0.1 -0.1)">
       <use xlink:href="#CMR17-31" transform="scale(0.996264)"/>
       <use xlink:href="#CMR17-39" transform="translate(45.690477 0) scale(0.996264)"/>
       <use xlink:href="#CMR17-34" transform="translate(91.380954 0) scale(0.996264)"/>
       <use xlink:href="#CMR17-30" transform="translate(137.071431 0) scale(0.996264)"/>
      </g>
     </g>
    </g>
    <g id="xtick_11">
     <g id="line2d_35">
      <path d="M 158.530334 617.744323 
L 158.530334 333.283188 
" clip-path="url(#pe86fffdc29)" style="fill: none; stroke: #b0b0b0; stroke-width: 0.8; stroke-linecap: square"/>
     </g>
     <g id="line2d_36">
      <g>
       <use xlink:href="#mfe3a5cd9aa" x="158.530334" y="617.744323" style="stroke: #000000; stroke-width: 0.8"/>
      </g>
     </g>
     <g id="text_19">
      <!-- $\mathdefault{1950}$ -->
      <g transform="translate(148.567664 631.662822) scale(0.1 -0.1)">
       <use xlink:href="#CMR17-31" transform="scale(0.996264)"/>
       <use xlink:href="#CMR17-39" transform="translate(45.690477 0) scale(0.996264)"/>
       <use xlink:href="#CMR17-35" transform="translate(91.380954 0) scale(0.996264)"/>
       <use xlink:href="#CMR17-30" transform="translate(137.071431 0) scale(0.996264)"/>
      </g>
     </g>
    </g>
    <g id="xtick_12">
     <g id="line2d_37">
      <path d="M 250.597998 617.744323 
L 250.597998 333.283188 
" clip-path="url(#pe86fffdc29)" style="fill: none; stroke: #b0b0b0; stroke-width: 0.8; stroke-linecap: square"/>
     </g>
     <g id="line2d_38">
      <g>
       <use xlink:href="#mfe3a5cd9aa" x="250.597998" y="617.744323" style="stroke: #000000; stroke-width: 0.8"/>
      </g>
     </g>
     <g id="text_20">
      <!-- $\mathdefault{1960}$ -->
      <g transform="translate(240.635327 631.662822) scale(0.1 -0.1)">
       <use xlink:href="#CMR17-31" transform="scale(0.996264)"/>
       <use xlink:href="#CMR17-39" transform="translate(45.690477 0) scale(0.996264)"/>
       <use xlink:href="#CMR17-36" transform="translate(91.380954 0) scale(0.996264)"/>
       <use xlink:href="#CMR17-30" transform="translate(137.071431 0) scale(0.996264)"/>
      </g>
     </g>
    </g>
    <g id="xtick_13">
     <g id="line2d_39">
      <path d="M 342.690872 617.744323 
L 342.690872 333.283188 
" clip-path="url(#pe86fffdc29)" style="fill: none; stroke: #b0b0b0; stroke-width: 0.8; stroke-linecap: square"/>
     </g>
     <g id="line2d_40">
      <g>
       <use xlink:href="#mfe3a5cd9aa" x="342.690872" y="617.744323" style="stroke: #000000; stroke-width: 0.8"/>
      </g>
     </g>
     <g id="text_21">
      <!-- $\mathdefault{1970}$ -->
      <g transform="translate(332.728201 631.662822) scale(0.1 -0.1)">
       <use xlink:href="#CMR17-31" transform="scale(0.996264)"/>
       <use xlink:href="#CMR17-39" transform="translate(45.690477 0) scale(0.996264)"/>
       <use xlink:href="#CMR17-37" transform="translate(91.380954 0) scale(0.996264)"/>
       <use xlink:href="#CMR17-30" transform="translate(137.071431 0) scale(0.996264)"/>
      </g>
     </g>
    </g>
    <g id="xtick_14">
     <g id="line2d_41">
      <path d="M 434.758536 617.744323 
L 434.758536 333.283188 
" clip-path="url(#pe86fffdc29)" style="fill: none; stroke: #b0b0b0; stroke-width: 0.8; stroke-linecap: square"/>
     </g>
     <g id="line2d_42">
      <g>
       <use xlink:href="#mfe3a5cd9aa" x="434.758536" y="617.744323" style="stroke: #000000; stroke-width: 0.8"/>
      </g>
     </g>
     <g id="text_22">
      <!-- $\mathdefault{1980}$ -->
      <g transform="translate(424.795865 631.662822) scale(0.1 -0.1)">
       <use xlink:href="#CMR17-31" transform="scale(0.996264)"/>
       <use xlink:href="#CMR17-39" transform="translate(45.690477 0) scale(0.996264)"/>
       <use xlink:href="#CMR17-38" transform="translate(91.380954 0) scale(0.996264)"/>
       <use xlink:href="#CMR17-30" transform="translate(137.071431 0) scale(0.996264)"/>
      </g>
     </g>
    </g>
    <g id="xtick_15">
     <g id="line2d_43">
      <path d="M 526.85141 617.744323 
L 526.85141 333.283188 
" clip-path="url(#pe86fffdc29)" style="fill: none; stroke: #b0b0b0; stroke-width: 0.8; stroke-linecap: square"/>
     </g>
     <g id="line2d_44">
      <g>
       <use xlink:href="#mfe3a5cd9aa" x="526.85141" y="617.744323" style="stroke: #000000; stroke-width: 0.8"/>
      </g>
     </g>
     <g id="text_23">
      <!-- $\mathdefault{1990}$ -->
      <g transform="translate(516.888739 631.662822) scale(0.1 -0.1)">
       <use xlink:href="#CMR17-31" transform="scale(0.996264)"/>
       <use xlink:href="#CMR17-39" transform="translate(45.690477 0) scale(0.996264)"/>
       <use xlink:href="#CMR17-39" transform="translate(91.380954 0) scale(0.996264)"/>
       <use xlink:href="#CMR17-30" transform="translate(137.071431 0) scale(0.996264)"/>
      </g>
     </g>
    </g>
    <g id="xtick_16">
     <g id="line2d_45">
      <path d="M 618.919073 617.744323 
L 618.919073 333.283188 
" clip-path="url(#pe86fffdc29)" style="fill: none; stroke: #b0b0b0; stroke-width: 0.8; stroke-linecap: square"/>
     </g>
     <g id="line2d_46">
      <g>
       <use xlink:href="#mfe3a5cd9aa" x="618.919073" y="617.744323" style="stroke: #000000; stroke-width: 0.8"/>
      </g>
     </g>
     <g id="text_24">
      <!-- $\mathdefault{2000}$ -->
      <g transform="translate(608.956403 631.662822) scale(0.1 -0.1)">
       <use xlink:href="#CMR17-32" transform="scale(0.996264)"/>
       <use xlink:href="#CMR17-30" transform="translate(45.690477 0) scale(0.996264)"/>
       <use xlink:href="#CMR17-30" transform="translate(91.380954 0) scale(0.996264)"/>
       <use xlink:href="#CMR17-30" transform="translate(137.071431 0) scale(0.996264)"/>
      </g>
     </g>
    </g>
    <g id="xtick_17">
     <g id="line2d_47">
      <path d="M 711.011947 617.744323 
L 711.011947 333.283188 
" clip-path="url(#pe86fffdc29)" style="fill: none; stroke: #b0b0b0; stroke-width: 0.8; stroke-linecap: square"/>
     </g>
     <g id="line2d_48">
      <g>
       <use xlink:href="#mfe3a5cd9aa" x="711.011947" y="617.744323" style="stroke: #000000; stroke-width: 0.8"/>
      </g>
     </g>
     <g id="text_25">
      <!-- $\mathdefault{2010}$ -->
      <g transform="translate(701.049277 631.662822) scale(0.1 -0.1)">
       <use xlink:href="#CMR17-32" transform="scale(0.996264)"/>
       <use xlink:href="#CMR17-30" transform="translate(45.690477 0) scale(0.996264)"/>
       <use xlink:href="#CMR17-31" transform="translate(91.380954 0) scale(0.996264)"/>
       <use xlink:href="#CMR17-30" transform="translate(137.071431 0) scale(0.996264)"/>
      </g>
     </g>
    </g>
    <g id="xtick_18">
     <g id="line2d_49">
      <path d="M 803.079611 617.744323 
L 803.079611 333.283188 
" clip-path="url(#pe86fffdc29)" style="fill: none; stroke: #b0b0b0; stroke-width: 0.8; stroke-linecap: square"/>
     </g>
     <g id="line2d_50">
      <g>
       <use xlink:href="#mfe3a5cd9aa" x="803.079611" y="617.744323" style="stroke: #000000; stroke-width: 0.8"/>
      </g>
     </g>
     <g id="text_26">
      <!-- $\mathdefault{2020}$ -->
      <g transform="translate(793.116941 631.662822) scale(0.1 -0.1)">
       <use xlink:href="#CMR17-32" transform="scale(0.996264)"/>
       <use xlink:href="#CMR17-30" transform="translate(45.690477 0) scale(0.996264)"/>
       <use xlink:href="#CMR17-32" transform="translate(91.380954 0) scale(0.996264)"/>
       <use xlink:href="#CMR17-30" transform="translate(137.071431 0) scale(0.996264)"/>
      </g>
     </g>
    </g>
   </g>
   <g id="matplotlib.axis_4">
    <g id="ytick_7">
     <g id="line2d_51">
      <path d="M 29.144006 612.572303 
L 849.6 612.572303 
" clip-path="url(#pe86fffdc29)" style="fill: none; stroke: #b0b0b0; stroke-width: 0.8; stroke-linecap: square"/>
     </g>
     <g id="line2d_52">
      <g>
       <use xlink:href="#m40ac5c2298" x="29.144006" y="612.572303" style="stroke: #000000; stroke-width: 0.8"/>
      </g>
     </g>
     <g id="text_27">
      <!-- $\mathdefault{0}$ -->
      <g transform="translate(17.162671 616.031552) scale(0.1 -0.1)">
       <use xlink:href="#CMR17-30" transform="scale(0.996264)"/>
      </g>
     </g>
    </g>
    <g id="ytick_8">
     <g id="line2d_53">
      <path d="M 29.144006 560.852096 
L 849.6 560.852096 
" clip-path="url(#pe86fffdc29)" style="fill: none; stroke: #b0b0b0; stroke-width: 0.8; stroke-linecap: square"/>
     </g>
     <g id="line2d_54">
      <g>
       <use xlink:href="#m40ac5c2298" x="29.144006" y="560.852096" style="stroke: #000000; stroke-width: 0.8"/>
      </g>
     </g>
     <g id="text_28">
      <!-- $\mathdefault{10}$ -->
      <g transform="translate(12.181335 564.311345) scale(0.1 -0.1)">
       <use xlink:href="#CMR17-31" transform="scale(0.996264)"/>
       <use xlink:href="#CMR17-30" transform="translate(45.690477 0) scale(0.996264)"/>
      </g>
     </g>
    </g>
    <g id="ytick_9">
     <g id="line2d_55">
      <path d="M 29.144006 509.13189 
L 849.6 509.13189 
" clip-path="url(#pe86fffdc29)" style="fill: none; stroke: #b0b0b0; stroke-width: 0.8; stroke-linecap: square"/>
     </g>
     <g id="line2d_56">
      <g>
       <use xlink:href="#m40ac5c2298" x="29.144006" y="509.13189" style="stroke: #000000; stroke-width: 0.8"/>
      </g>
     </g>
     <g id="text_29">
      <!-- $\mathdefault{20}$ -->
      <g transform="translate(12.181335 512.591139) scale(0.1 -0.1)">
       <use xlink:href="#CMR17-32" transform="scale(0.996264)"/>
       <use xlink:href="#CMR17-30" transform="translate(45.690477 0) scale(0.996264)"/>
      </g>
     </g>
    </g>
    <g id="ytick_10">
     <g id="line2d_57">
      <path d="M 29.144006 457.411683 
L 849.6 457.411683 
" clip-path="url(#pe86fffdc29)" style="fill: none; stroke: #b0b0b0; stroke-width: 0.8; stroke-linecap: square"/>
     </g>
     <g id="line2d_58">
      <g>
       <use xlink:href="#m40ac5c2298" x="29.144006" y="457.411683" style="stroke: #000000; stroke-width: 0.8"/>
      </g>
     </g>
     <g id="text_30">
      <!-- $\mathdefault{30}$ -->
      <g transform="translate(12.181335 460.870933) scale(0.1 -0.1)">
       <defs>
        <path id="CMR17-33" d="M 1414 2176 
C 1984 2176 2234 1673 2234 1094 
C 2234 322 1824 25 1453 25 
C 1114 25 563 193 390 691 
C 422 678 454 678 486 678 
C 640 678 755 780 755 947 
C 755 1132 614 1216 486 1216 
C 378 1216 211 1164 211 927 
C 211 335 787 -128 1466 -128 
C 2176 -128 2720 432 2720 1087 
C 2720 1718 2208 2176 1600 2246 
C 2086 2347 2554 2776 2554 3353 
C 2554 3856 2048 4224 1472 4224 
C 890 4224 378 3862 378 3347 
C 378 3123 544 3084 627 3084 
C 762 3084 877 3167 877 3334 
C 877 3500 762 3584 627 3584 
C 602 3584 570 3584 544 3571 
C 730 3999 1235 4076 1459 4076 
C 1683 4076 2106 3966 2106 3347 
C 2106 3167 2080 2851 1862 2574 
C 1670 2329 1453 2316 1242 2297 
C 1210 2297 1062 2284 1037 2284 
C 992 2278 966 2272 966 2227 
C 966 2182 973 2176 1101 2176 
L 1414 2176 
z
" transform="scale(0.015625)"/>
       </defs>
       <use xlink:href="#CMR17-33" transform="scale(0.996264)"/>
       <use xlink:href="#CMR17-30" transform="translate(45.690477 0) scale(0.996264)"/>
      </g>
     </g>
    </g>
    <g id="ytick_11">
     <g id="line2d_59">
      <path d="M 29.144006 405.691477 
L 849.6 405.691477 
" clip-path="url(#pe86fffdc29)" style="fill: none; stroke: #b0b0b0; stroke-width: 0.8; stroke-linecap: square"/>
     </g>
     <g id="line2d_60">
      <g>
       <use xlink:href="#m40ac5c2298" x="29.144006" y="405.691477" style="stroke: #000000; stroke-width: 0.8"/>
      </g>
     </g>
     <g id="text_31">
      <!-- $\mathdefault{40}$ -->
      <g transform="translate(12.181335 409.150726) scale(0.1 -0.1)">
       <use xlink:href="#CMR17-34" transform="scale(0.996264)"/>
       <use xlink:href="#CMR17-30" transform="translate(45.690477 0) scale(0.996264)"/>
      </g>
     </g>
    </g>
    <g id="ytick_12">
     <g id="line2d_61">
      <path d="M 29.144006 353.971271 
L 849.6 353.971271 
" clip-path="url(#pe86fffdc29)" style="fill: none; stroke: #b0b0b0; stroke-width: 0.8; stroke-linecap: square"/>
     </g>
     <g id="line2d_62">
      <g>
       <use xlink:href="#m40ac5c2298" x="29.144006" y="353.971271" style="stroke: #000000; stroke-width: 0.8"/>
      </g>
     </g>
     <g id="text_32">
      <!-- $\mathdefault{50}$ -->
      <g transform="translate(12.181335 357.43052) scale(0.1 -0.1)">
       <use xlink:href="#CMR17-35" transform="scale(0.996264)"/>
       <use xlink:href="#CMR17-30" transform="translate(45.690477 0) scale(0.996264)"/>
      </g>
     </g>
    </g>
   </g>
   <g id="line2d_63">
    <path d="M 66.43746 602.228261 
L 94.067843 607.400282 
L 121.698226 602.228261 
L 149.32861 612.572303 
L 176.933783 612.572303 
L 204.564166 612.572303 
L 232.194549 612.572303 
L 259.824932 612.572303 
L 287.430105 612.572303 
L 315.060489 607.400282 
L 342.690872 612.572303 
L 370.321255 612.572303 
L 397.926428 612.572303 
L 425.556811 612.572303 
L 453.187194 612.572303 
L 480.817578 612.572303 
L 508.422751 612.572303 
L 536.053134 612.572303 
L 563.683517 607.400282 
L 591.3139 612.572303 
L 618.919073 612.572303 
L 646.549457 612.572303 
L 674.17984 612.572303 
L 701.810223 607.400282 
L 729.415396 612.572303 
L 757.045779 612.572303 
L 784.676162 591.88422 
L 812.306546 612.572303 
" clip-path="url(#pe86fffdc29)" style="fill: none; stroke: #ff0000; stroke-width: 1.5; stroke-linecap: square"/>
    <defs>
     <path id="ma454b9ece2" d="M 0 1.5 
C 0.397805 1.5 0.77937 1.341951 1.06066 1.06066 
C 1.341951 0.77937 1.5 0.397805 1.5 0 
C 1.5 -0.397805 1.341951 -0.77937 1.06066 -1.06066 
C 0.77937 -1.341951 0.397805 -1.5 0 -1.5 
C -0.397805 -1.5 -0.77937 -1.341951 -1.06066 -1.06066 
C -1.341951 -0.77937 -1.5 -0.397805 -1.5 0 
C -1.5 0.397805 -1.341951 0.77937 -1.06066 1.06066 
C -0.77937 1.341951 -0.397805 1.5 0 1.5 
z
" style="stroke: #ff0000"/>
    </defs>
    <g clip-path="url(#pe86fffdc29)">
     <use xlink:href="#ma454b9ece2" x="66.43746" y="602.228261" style="fill: #ff0000; stroke: #ff0000"/>
     <use xlink:href="#ma454b9ece2" x="94.067843" y="607.400282" style="fill: #ff0000; stroke: #ff0000"/>
     <use xlink:href="#ma454b9ece2" x="121.698226" y="602.228261" style="fill: #ff0000; stroke: #ff0000"/>
     <use xlink:href="#ma454b9ece2" x="149.32861" y="612.572303" style="fill: #ff0000; stroke: #ff0000"/>
     <use xlink:href="#ma454b9ece2" x="176.933783" y="612.572303" style="fill: #ff0000; stroke: #ff0000"/>
     <use xlink:href="#ma454b9ece2" x="204.564166" y="612.572303" style="fill: #ff0000; stroke: #ff0000"/>
     <use xlink:href="#ma454b9ece2" x="232.194549" y="612.572303" style="fill: #ff0000; stroke: #ff0000"/>
     <use xlink:href="#ma454b9ece2" x="259.824932" y="612.572303" style="fill: #ff0000; stroke: #ff0000"/>
     <use xlink:href="#ma454b9ece2" x="287.430105" y="612.572303" style="fill: #ff0000; stroke: #ff0000"/>
     <use xlink:href="#ma454b9ece2" x="315.060489" y="607.400282" style="fill: #ff0000; stroke: #ff0000"/>
     <use xlink:href="#ma454b9ece2" x="342.690872" y="612.572303" style="fill: #ff0000; stroke: #ff0000"/>
     <use xlink:href="#ma454b9ece2" x="370.321255" y="612.572303" style="fill: #ff0000; stroke: #ff0000"/>
     <use xlink:href="#ma454b9ece2" x="397.926428" y="612.572303" style="fill: #ff0000; stroke: #ff0000"/>
     <use xlink:href="#ma454b9ece2" x="425.556811" y="612.572303" style="fill: #ff0000; stroke: #ff0000"/>
     <use xlink:href="#ma454b9ece2" x="453.187194" y="612.572303" style="fill: #ff0000; stroke: #ff0000"/>
     <use xlink:href="#ma454b9ece2" x="480.817578" y="612.572303" style="fill: #ff0000; stroke: #ff0000"/>
     <use xlink:href="#ma454b9ece2" x="508.422751" y="612.572303" style="fill: #ff0000; stroke: #ff0000"/>
     <use xlink:href="#ma454b9ece2" x="536.053134" y="612.572303" style="fill: #ff0000; stroke: #ff0000"/>
     <use xlink:href="#ma454b9ece2" x="563.683517" y="607.400282" style="fill: #ff0000; stroke: #ff0000"/>
     <use xlink:href="#ma454b9ece2" x="591.3139" y="612.572303" style="fill: #ff0000; stroke: #ff0000"/>
     <use xlink:href="#ma454b9ece2" x="618.919073" y="612.572303" style="fill: #ff0000; stroke: #ff0000"/>
     <use xlink:href="#ma454b9ece2" x="646.549457" y="612.572303" style="fill: #ff0000; stroke: #ff0000"/>
     <use xlink:href="#ma454b9ece2" x="674.17984" y="612.572303" style="fill: #ff0000; stroke: #ff0000"/>
     <use xlink:href="#ma454b9ece2" x="701.810223" y="607.400282" style="fill: #ff0000; stroke: #ff0000"/>
     <use xlink:href="#ma454b9ece2" x="729.415396" y="612.572303" style="fill: #ff0000; stroke: #ff0000"/>
     <use xlink:href="#ma454b9ece2" x="757.045779" y="612.572303" style="fill: #ff0000; stroke: #ff0000"/>
     <use xlink:href="#ma454b9ece2" x="784.676162" y="591.88422" style="fill: #ff0000; stroke: #ff0000"/>
     <use xlink:href="#ma454b9ece2" x="812.306546" y="612.572303" style="fill: #ff0000; stroke: #ff0000"/>
    </g>
   </g>
   <g id="line2d_64">
    <path d="M 66.43746 540.164014 
L 94.067843 534.991993 
L 121.698226 472.927745 
L 149.32861 586.712199 
L 176.933783 555.680076 
L 204.564166 581.540179 
L 232.194549 576.368158 
L 259.824932 576.368158 
L 287.430105 581.540179 
L 315.060489 571.196138 
L 342.690872 540.164014 
L 370.321255 498.787849 
L 397.926428 524.647952 
L 425.556811 597.056241 
L 453.187194 534.991993 
L 480.817578 576.368158 
L 508.422751 581.540179 
L 536.053134 566.024117 
L 563.683517 457.411683 
L 591.3139 555.680076 
L 618.919073 545.336034 
L 646.549457 534.991993 
L 674.17984 483.271787 
L 701.810223 534.991993 
L 729.415396 534.991993 
L 757.045779 529.819972 
L 784.676162 359.143291 
L 812.306546 519.475931 
" clip-path="url(#pe86fffdc29)" style="fill: none; stroke: #ee82ee; stroke-width: 1.5; stroke-linecap: square"/>
    <defs>
     <path id="m8cddc23b39" d="M 0 1.5 
C 0.397805 1.5 0.77937 1.341951 1.06066 1.06066 
C 1.341951 0.77937 1.5 0.397805 1.5 0 
C 1.5 -0.397805 1.341951 -0.77937 1.06066 -1.06066 
C 0.77937 -1.341951 0.397805 -1.5 0 -1.5 
C -0.397805 -1.5 -0.77937 -1.341951 -1.06066 -1.06066 
C -1.341951 -0.77937 -1.5 -0.397805 -1.5 0 
C -1.5 0.397805 -1.341951 0.77937 -1.06066 1.06066 
C -0.77937 1.341951 -0.397805 1.5 0 1.5 
z
" style="stroke: #ee82ee"/>
    </defs>
    <g clip-path="url(#pe86fffdc29)">
     <use xlink:href="#m8cddc23b39" x="66.43746" y="540.164014" style="fill: #ee82ee; stroke: #ee82ee"/>
     <use xlink:href="#m8cddc23b39" x="94.067843" y="534.991993" style="fill: #ee82ee; stroke: #ee82ee"/>
     <use xlink:href="#m8cddc23b39" x="121.698226" y="472.927745" style="fill: #ee82ee; stroke: #ee82ee"/>
     <use xlink:href="#m8cddc23b39" x="149.32861" y="586.712199" style="fill: #ee82ee; stroke: #ee82ee"/>
     <use xlink:href="#m8cddc23b39" x="176.933783" y="555.680076" style="fill: #ee82ee; stroke: #ee82ee"/>
     <use xlink:href="#m8cddc23b39" x="204.564166" y="581.540179" style="fill: #ee82ee; stroke: #ee82ee"/>
     <use xlink:href="#m8cddc23b39" x="232.194549" y="576.368158" style="fill: #ee82ee; stroke: #ee82ee"/>
     <use xlink:href="#m8cddc23b39" x="259.824932" y="576.368158" style="fill: #ee82ee; stroke: #ee82ee"/>
     <use xlink:href="#m8cddc23b39" x="287.430105" y="581.540179" style="fill: #ee82ee; stroke: #ee82ee"/>
     <use xlink:href="#m8cddc23b39" x="315.060489" y="571.196138" style="fill: #ee82ee; stroke: #ee82ee"/>
     <use xlink:href="#m8cddc23b39" x="342.690872" y="540.164014" style="fill: #ee82ee; stroke: #ee82ee"/>
     <use xlink:href="#m8cddc23b39" x="370.321255" y="498.787849" style="fill: #ee82ee; stroke: #ee82ee"/>
     <use xlink:href="#m8cddc23b39" x="397.926428" y="524.647952" style="fill: #ee82ee; stroke: #ee82ee"/>
     <use xlink:href="#m8cddc23b39" x="425.556811" y="597.056241" style="fill: #ee82ee; stroke: #ee82ee"/>
     <use xlink:href="#m8cddc23b39" x="453.187194" y="534.991993" style="fill: #ee82ee; stroke: #ee82ee"/>
     <use xlink:href="#m8cddc23b39" x="480.817578" y="576.368158" style="fill: #ee82ee; stroke: #ee82ee"/>
     <use xlink:href="#m8cddc23b39" x="508.422751" y="581.540179" style="fill: #ee82ee; stroke: #ee82ee"/>
     <use xlink:href="#m8cddc23b39" x="536.053134" y="566.024117" style="fill: #ee82ee; stroke: #ee82ee"/>
     <use xlink:href="#m8cddc23b39" x="563.683517" y="457.411683" style="fill: #ee82ee; stroke: #ee82ee"/>
     <use xlink:href="#m8cddc23b39" x="591.3139" y="555.680076" style="fill: #ee82ee; stroke: #ee82ee"/>
     <use xlink:href="#m8cddc23b39" x="618.919073" y="545.336034" style="fill: #ee82ee; stroke: #ee82ee"/>
     <use xlink:href="#m8cddc23b39" x="646.549457" y="534.991993" style="fill: #ee82ee; stroke: #ee82ee"/>
     <use xlink:href="#m8cddc23b39" x="674.17984" y="483.271787" style="fill: #ee82ee; stroke: #ee82ee"/>
     <use xlink:href="#m8cddc23b39" x="701.810223" y="534.991993" style="fill: #ee82ee; stroke: #ee82ee"/>
     <use xlink:href="#m8cddc23b39" x="729.415396" y="534.991993" style="fill: #ee82ee; stroke: #ee82ee"/>
     <use xlink:href="#m8cddc23b39" x="757.045779" y="529.819972" style="fill: #ee82ee; stroke: #ee82ee"/>
     <use xlink:href="#m8cddc23b39" x="784.676162" y="359.143291" style="fill: #ee82ee; stroke: #ee82ee"/>
     <use xlink:href="#m8cddc23b39" x="812.306546" y="519.475931" style="fill: #ee82ee; stroke: #ee82ee"/>
    </g>
   </g>
   <g id="patch_9">
    <path d="M 29.144006 617.744323 
L 29.144006 333.283188 
" style="fill: none; stroke: #000000; stroke-width: 0.8; stroke-linejoin: miter; stroke-linecap: square"/>
   </g>
   <g id="patch_10">
    <path d="M 849.6 617.744323 
L 849.6 333.283188 
" style="fill: none; stroke: #000000; stroke-width: 0.8; stroke-linejoin: miter; stroke-linecap: square"/>
   </g>
   <g id="patch_11">
    <path d="M 29.144006 617.744323 
L 849.6 617.744323 
" style="fill: none; stroke: #000000; stroke-width: 0.8; stroke-linejoin: miter; stroke-linecap: square"/>
   </g>
   <g id="patch_12">
    <path d="M 29.144006 333.283188 
L 849.6 333.283188 
" style="fill: none; stroke: #000000; stroke-width: 0.8; stroke-linejoin: miter; stroke-linecap: square"/>
   </g>
   <g id="legend_2">
    <g id="patch_13">
     <path d="M 36.144006 369.157545 
L 129.995467 369.157545 
Q 131.995467 369.157545 131.995467 367.157545 
L 131.995467 340.283188 
Q 131.995467 338.283188 129.995467 338.283188 
L 36.144006 338.283188 
Q 34.144006 338.283188 34.144006 340.283188 
L 34.144006 367.157545 
Q 34.144006 369.157545 36.144006 369.157545 
z
" style="fill: #ffffff; opacity: 0.8; stroke: #cccccc; stroke-linejoin: miter"/>
    </g>
    <g id="line2d_65">
     <path d="M 38.144006 345.783188 
L 48.144006 345.783188 
L 58.144006 345.783188 
" style="fill: none; stroke: #ff0000; stroke-width: 1.5; stroke-linecap: square"/>
     <g>
      <use xlink:href="#ma454b9ece2" x="48.144006" y="345.783188" style="fill: #ff0000; stroke: #ff0000"/>
     </g>
    </g>
    <g id="text_33">
     <!-- Hot days -->
     <g transform="translate(66.144006 349.283188) scale(0.1 -0.1)">
      <defs>
       <path id="CMSS17-48" d="M 3674 4416 
L 3136 4416 
L 3136 2496 
L 1101 2496 
L 1101 4416 
L 563 4416 
L 563 0 
L 1101 0 
L 1101 2105 
L 3136 2105 
L 3136 0 
L 3674 0 
L 3674 4416 
z
" transform="scale(0.015625)"/>
      </defs>
      <use xlink:href="#CMSS17-48" transform="scale(0.996264)"/>
      <use xlink:href="#CMSS17-6f" transform="translate(66.061519 0) scale(0.996264)"/>
      <use xlink:href="#CMSS17-74" transform="translate(112.905143 0) scale(0.996264)"/>
      <use xlink:href="#CMSS17-64" transform="translate(177.965822 0) scale(0.996264)"/>
      <use xlink:href="#CMSS17-61" transform="translate(226.170765 0) scale(0.996264)"/>
      <use xlink:href="#CMSS17-79" transform="translate(268.490232 0) scale(0.996264)"/>
      <use xlink:href="#CMSS17-73" transform="translate(311.490374 0) scale(0.996264)"/>
     </g>
    </g>
    <g id="line2d_66">
     <path d="M 38.144006 359.720366 
L 48.144006 359.720366 
L 58.144006 359.720366 
" style="fill: none; stroke: #ee82ee; stroke-width: 1.5; stroke-linecap: square"/>
     <g>
      <use xlink:href="#m8cddc23b39" x="48.144006" y="359.720366" style="fill: #ee82ee; stroke: #ee82ee"/>
     </g>
    </g>
    <g id="text_34">
     <!-- Tropical nights -->
     <g transform="translate(66.144006 363.220366) scale(0.1 -0.1)">
      <defs>
       <path id="CMSS17-54" d="M 2317 3987 
L 2848 3987 
C 2925 3987 3002 3980 3078 3980 
L 3878 3980 
L 3878 4396 
L 218 4396 
L 218 3980 
L 1018 3980 
C 1094 3980 1171 3987 1248 3987 
L 1779 3987 
L 1779 0 
L 2317 0 
L 2317 3987 
z
" transform="scale(0.015625)"/>
       <path id="CMSS17-70" d="M 966 275 
C 1178 70 1466 -64 1773 -64 
C 2368 -64 2880 553 2880 1382 
C 2880 2147 2496 2816 1946 2816 
C 1626 2816 1242 2700 954 2470 
L 954 2764 
L 480 2764 
L 480 -1280 
L 966 -1280 
L 966 275 
z
M 966 2088 
C 1018 2166 1235 2412 1587 2412 
C 2035 2412 2394 1946 2394 1382 
C 2394 741 1958 326 1530 326 
C 1402 326 1267 358 1139 468 
C 966 624 966 721 966 812 
L 966 2088 
z
" transform="scale(0.015625)"/>
      </defs>
      <use xlink:href="#CMSS17-54" transform="scale(0.996264)"/>
      <use xlink:href="#CMSS17-72" transform="translate(56.012199 0) scale(0.996264)"/>
      <use xlink:href="#CMSS17-6f" transform="translate(87.921971 0) scale(0.996264)"/>
      <use xlink:href="#CMSS17-70" transform="translate(134.765595 0) scale(0.996264)"/>
      <use xlink:href="#CMSS17-69" transform="translate(182.970538 0) scale(0.996264)"/>
      <use xlink:href="#CMSS17-63" transform="translate(205.151261 0) scale(0.996264)"/>
      <use xlink:href="#CMSS17-61" transform="translate(246.790083 0) scale(0.996264)"/>
      <use xlink:href="#CMSS17-6c" transform="translate(291.712003 0) scale(0.996264)"/>
      <use xlink:href="#CMSS17-6e" transform="translate(345.121839 0) scale(0.996264)"/>
      <use xlink:href="#CMSS17-69" transform="translate(393.326782 0) scale(0.996264)"/>
      <use xlink:href="#CMSS17-67" transform="translate(415.507505 0) scale(0.996264)"/>
      <use xlink:href="#CMSS17-68" transform="translate(462.351129 0) scale(0.996264)"/>
      <use xlink:href="#CMSS17-74" transform="translate(510.556072 0) scale(0.996264)"/>
      <use xlink:href="#CMSS17-73" transform="translate(544.387639 0) scale(0.996264)"/>
     </g>
    </g>
   </g>
  </g>
 </g>
 <defs>
  <clipPath id="pef19aaa56a">
   <rect x="29.144006" y="22.166376" width="820.455994" height="284.461135"/>
  </clipPath>
  <clipPath id="pe86fffdc29">
   <rect x="29.144006" y="333.283188" width="820.455994" height="284.461135"/>
  </clipPath>
 </defs>
</svg>
